<?xml version="1.0" encoding="UTF-8" standalone="no"?>
<!-- Created with Inkscape (http://www.inkscape.org/) -->

<svg
   width="400"
   height="100"
   viewBox="0 0 105.83333 26.458333"
   version="1.1"
   id="svg1"
   xml:space="preserve"
   xmlns="http://www.w3.org/2000/svg"
   xmlns:svg="http://www.w3.org/2000/svg"><defs
     id="defs1"><rect
       x="225.88126"
       y="443.49857"
       width="329.18063"
       height="72.309547"
       id="rect83" /></defs><g
     id="g85"
     transform="matrix(0.87641149,0,0,0.88065226,-29.119646,-98.307081)"><g
       id="layer3-4"
       transform="translate(-9.9324313,1.3475166)"><rect
         style="fill:#e74c3c;fill-opacity:1;stroke-width:0.277247"
         id="rect85-2-2"
         width="91.07605"
         height="25.548868"
         x="9.5697727"
         y="121.26279"
         transform="matrix(0.99999971,-7.5970682e-4,0.37474128,0.92712943,0,0)" /></g><g
       id="layer3"
       transform="translate(-9.8392638,-2.3687117)"><rect
         style="fill:#34495e;fill-opacity:1;stroke-width:0.277247"
         id="rect85-2"
         width="91.07605"
         height="25.548868"
         x="5.728662"
         y="126.55645"
         transform="matrix(0.99999971,-7.5970682e-4,0.37474128,0.92712943,0,0)" /></g><g
       id="layer2"><rect
         style="fill:#3498db;fill-opacity:1;stroke-width:0.277247"
         id="rect85"
         width="91.07605"
         height="25.548868"
         x="-5.3725348"
         y="125.02589"
         transform="matrix(0.99999971,-7.5970647e-4,0.37474128,0.92712943,0,0)" /></g><g
       id="layer1"><g
         style="fill:#34495e;fill-opacity:1"
         id="g82"
         transform="matrix(0.37846241,0,0,0.38997807,50.828464,128.00609)"><path
           d="M 5.2428059,6.6568543 0.29296329,1.7071068 c -0.3905318,-0.3905243 -0.39054395,-1.02368929 -2.721e-5,-1.41421358 0.39051681,-0.39052429 1.02368172,-0.39052429 1.41421362,0 L 7.3641123,5.9497475 C 7.7546442,6.3402718 7.7546561,6.9734367 7.36414,7.363961 l -5.6567454,5.656854 c -0.3905167,0.390525 -1.02368173,0.390525 -1.41421362,0 -0.39053234,-0.390524 -0.39054454,-1.023689 -2.764e-5,-1.414213 z M 9.000248,11 h 8.000001 c 0.552285,0 1.000006,0.447715 1.000017,1 8e-6,0.552285 -0.447694,1 -0.999979,1 H 9.0002868 C 8.4480024,13 8.0002781,12.552285 8.0002675,12 8.000257,11.447715 8.4479637,11 9.000248,11 Z"
           id="path1"
           style="fill:#34495e;fill-opacity:1" /></g><g
         style="fill:#e74c3c;fill-opacity:1"
         id="g83"
         transform="matrix(0.37846241,0,7.2348453e-6,0.38997807,49.774932,121.29809)"><path
           d="M 7,5 H 8 A 1,1 0 1 1 8,7 H 7 V 8 A 1,1 0 1 1 5,8 V 7 H 4 A 1,1 0 1 1 4,5 H 5 V 4 A 1,1 0 1 1 7,4 Z M 6,0 H 18 A 6,6 0 1 1 13.528,10 H 10.472 A 6,6 0 1 1 6,0 Z M 6,2 A 4,4 0 1 0 8.982,8.666 L 9.578,8 h 4.844 l 0.596,0.666 A 4,4 0 1 0 18,2 Z m 12,3 a 1,1 0 1 1 0,-2 1,1 0 0 1 0,2 z m -2,2 a 1,1 0 1 1 0,-2 1,1 0 0 1 0,2 z m 4,0 a 1,1 0 1 1 0,-2 1,1 0 0 1 0,2 z m -2,2 a 1,1 0 1 1 0,-2 1,1 0 0 1 0,2 z"
           id="path1-7"
           style="fill:#e74c3c;fill-opacity:1" /></g><text
         xml:space="preserve"
         transform="matrix(0.26458333,0,0.01155545,0.26458333,-5.5645858,0)"
         id="text83"
         style="font-style:normal;font-variant:normal;font-weight:normal;font-stretch:normal;font-size:58.6667px;font-family:Alef;-inkscape-font-specification:Alef;text-align:start;letter-spacing:0px;word-spacing:0px;writing-mode:lr-tb;direction:ltr;white-space:pre;shape-inside:url(#rect83);fill:#ecf0f1;fill-opacity:1"
         x="-1.0681151e-07"
         y="0"><tspan
           x="225.88086"
           y="497.75328"
           id="tspan1">Quicksave</tspan></text></g></g></svg>
